<?xml version="1.0" encoding="UTF-8"?>
<svg id="Layer_1" xmlns="http://www.w3.org/2000/svg" version="1.1" viewBox="0 0 1024 1024">
  <!-- Generator: Adobe Illustrator 30.2.1, SVG Export Plug-In . SVG Version: 2.1.1 Build 1)  -->
  <defs>
    <style>
      .st0 {
        fill: #c15b29;
      }

      .st1 {
        fill: #fff8eb;
      }

      .st2 {
        fill: #d49b7a;
        opacity: .82;
      }

      .st2, .st3 {
        isolation: isolate;
      }

      .st3 {
        fill: #20130c;
        opacity: .88;
      }
    </style>
  </defs>
  <rect class="st0" x="198.6" y="209.37" width="590.27" height="590.27" rx="32" ry="32" transform="translate(-149.21 795.92) rotate(-70)"/>
  <rect class="st3" x="266.99" y="257.25" width="590.27" height="590.27" rx="32" ry="32" transform="translate(-87.38 106) rotate(-10)"/>
  <rect class="st2" x="337.82" y="334.95" width="448.6" height="448.6" rx="24" ry="24" transform="translate(-43.99 1070.49) rotate(-85)"/>
  <path class="st1" d="M459.79,425.05l87.02,7.61c22.72,1.99,39.7,4.82,50.94,8.48,27.77,9,49.06,29.24,63.87,60.72,11.61,24.76,16.18,51.31,13.7,79.67-2.53,28.89-11.89,54.56-28.08,77.02-19.49,27.14-43.22,42.97-71.17,47.49-7.21,1.11-13.59,1.63-19.14,1.54-5.55-.08-17.7-.94-36.45-2.59l-84.04-7.35,12.03-131.74,11.32-140.86ZM559.92,446.69l-15.04,160.45-6.57,86.55c14.79,1.16,25.47,1.39,32.03.69,6.56-.7,14.23-2.88,22.99-6.54,20.64-8.52,37.58-23.67,50.82-45.45,11.53-18.71,18.29-39.45,20.28-62.21,2.17-24.76-1.62-48.03-11.37-69.81-17.37-38.67-46.27-59.78-86.69-63.32l-6.46-.36Z"/>
</svg>